<?xml version="1.0" encoding="UTF-8" standalone="no"?>
<svg
   width="256"
   height="256"
   viewBox="0 0 256 256"
   fill="none"
   stroke="currentColor"
   stroke-width="2"
   stroke-linecap="round"
   stroke-linejoin="round"
   class="icon icon-tabler icons-tabler-outline icon-tabler-message-circle"
   version="1.1"
   id="svg2"
   xmlns="http://www.w3.org/2000/svg"
   xmlns:svg="http://www.w3.org/2000/svg">
  <defs
     id="defs2" />
  <path
     stroke="none"
     d="M 0.09879789,0 H 255.99999 V 255.9012 H 0.09879789 Z"
     fill="none"
     id="path1"
     style="stroke-width:21.3251" />
  <path
     d="M 12.796831,230.44195 29.446007,180.49443 C -0.31759718,136.47657 11.183141,79.677257 56.340831,47.633996 101.49852,15.603542 166.35347,18.22899 208.04045,53.781384 249.72742,89.346587 255.36252,146.83747 221.2189,188.2683 187.07528,229.69914 123.69316,242.25006 72.990007,217.63488 l -60.193176,12.80707"
     id="path2"
     style="fill:#21f165;fill-opacity:1;stroke:#000000;stroke-width:25.614;stroke-dasharray:none;stroke-opacity:1" />
  <path
     style="fill:#fefefe;fill-opacity:1;stroke:none;stroke-width:0;stroke-linecap:square;stroke-miterlimit:0;stroke-dasharray:none;paint-order:stroke markers fill"
     id="path3"
     d="M 99.879061,129.6816 A 19.210588,19.210588 0 0 1 80.218755,148.41577 19.210588,19.210588 0 0 1 61.468698,128.77062 19.210588,19.210588 0 0 1 81.098689,110.00469 19.210588,19.210588 0 0 1 99.880484,129.6195" />
  <path
     style="fill:#fefefe;fill-opacity:1;stroke:none;stroke-width:0;stroke-linecap:square;stroke-miterlimit:0;stroke-dasharray:none;paint-order:stroke markers fill"
     id="path3-0"
     d="m 148.54586,129.6816 a 19.210588,19.210588 0 0 1 -19.6603,18.73417 19.210588,19.210588 0 0 1 -18.75006,-19.64515 19.210588,19.210588 0 0 1 19.62999,-18.76593 19.210588,19.210588 0 0 1 18.7818,19.61481" />
  <path
     style="fill:#fefefe;fill-opacity:1;stroke:none;stroke-width:0;stroke-linecap:square;stroke-miterlimit:0;stroke-dasharray:none;paint-order:stroke markers fill"
     id="path3-5"
     d="m 197.21269,130.1526 a 19.210588,19.210588 0 0 1 -19.66031,18.73417 19.210588,19.210588 0 0 1 -18.75006,-19.64516 19.210588,19.210588 0 0 1 19.63,-18.76593 19.210588,19.210588 0 0 1 18.78179,19.61481" />
</svg>
