<svg xmlns="http://www.w3.org/2000/svg" version="1.1" width="1024" height="1024" viewBox="0 0 1024 1024" id="svg58" xmlns:svg="http://www.w3.org/2000/svg"><metadata><RDF xmlns:rdf="http://www.w3.org/1999/02/22-rdf-syntax-ns#" xmlns:dc="http://purl.org/dc/elements/1.1/"><Description><creator>RealFaviconGenerator</creator><source>https://realfavicongenerator.net</source></Description></RDF></metadata><defs id="defs43"></defs><rect style="fill:#000000;fill-opacity:1;stroke-width:0;stroke-linecap:square;stroke-miterlimit:0;paint-order:stroke markers fill" id="rect58" width="1024" height="1024" x="0" y="0" rx="150.99556"></rect><path fill="#0a0c08" d="m 490.60372,187.23347 c 82.12927,4.90071 166.15737,37.07072 202.66673,115.46263 50.7506,108.96069 8.71737,183.46116 -86.55988,233.55513 13.7042,47.85226 33.22955,86.04867 49.47511,130.70819 15.11395,41.56384 10.76006,122.35273 10.31891,169.80711 l -137.14745,-0.3105 -191.91627,-0.50466 c -0.89189,-57.07142 0.91105,-107.65061 3.25103,-164.58616 40.6235,-52.70445 49.25455,-74.36461 63.40947,-137.75357 -7.3364,-4.30875 -14.53853,-8.83098 -21.59682,-13.57641 -142.90147,-95.42311 -61.52022,-307.4054 108.09917,-332.80176 z" id="path11" style="fill:#f5f5f5;fill-opacity:1;stroke:#1f3a5f;stroke-width:10;stroke-dasharray:none;stroke-opacity:1"></path></svg>