<?xml version="1.0" encoding="UTF-8" standalone="no"?>
<svg
   version="1.1"
   width="256"
   height="256"
   viewBox="0 0 256 256"
   fill="none"
   stroke="currentColor"
   stroke-width="2"
   stroke-linecap="round"
   stroke-linejoin="round"
   class="icon icon-tabler icons-tabler-outline icon-tabler-message-circle"
   id="svg2"
   xmlns="http://www.w3.org/2000/svg"
   xmlns:svg="http://www.w3.org/2000/svg"
   xmlns:rdf="http://www.w3.org/1999/02/22-rdf-syntax-ns#"
   xmlns:dc="http://purl.org/dc/elements/1.1/">
  <metadata
     id="metadata1">
    <rdf:RDF>
      <rdf:Description>
        <dc:creator>RealFaviconGenerator</dc:creator>
        <dc:source>https://realfavicongenerator.net</dc:source>
      </rdf:Description>
    </rdf:RDF>
  </metadata>
  <defs
     id="defs2" />
  <path
     stroke="none"
     d="M 0.09879789,0 H 255.99999 V 255.9012 H 0.09879789 Z"
     fill="none"
     id="path1"
     style="stroke-width:21.3251" />
  <path
     d="M 12.796831,230.44195 29.446007,180.49443 C -0.31759718,136.47657 11.183141,79.677257 56.340831,47.633996 101.49852,15.603542 166.35347,18.22899 208.04045,53.781384 249.72742,89.346587 255.36252,146.83747 221.2189,188.2683 187.07528,229.69914 123.69316,242.25006 72.990007,217.63488 l -60.193176,12.80707"
     id="path2"
     style="fill:#5dfa90;fill-opacity:1;stroke:#4d4d4d;stroke-width:0.5;stroke-dasharray:none;stroke-opacity:1" />
  <path
     style="fill:#fefefe;fill-opacity:1;stroke:#000000;stroke-width:0.5;stroke-linecap:square;stroke-miterlimit:0;stroke-dasharray:none;stroke-opacity:1;paint-order:stroke markers fill"
     id="path3"
     d="M 92.96025,129.73691 A 23.721973,23.721973 0 0 1 68.682949,152.87058 23.721973,23.721973 0 0 1 45.529657,128.61199 23.721973,23.721973 0 0 1 69.769525,105.4391 23.721973,23.721973 0 0 1 92.962008,129.66022" />
  <path
     style="fill:#fefefe;fill-opacity:1;stroke:#000000;stroke-width:0.5;stroke-linecap:square;stroke-miterlimit:0;stroke-dasharray:none;stroke-opacity:1;paint-order:stroke markers fill"
     id="path3-0"
     d="m 153.05589,129.73691 a 23.721973,23.721973 0 0 1 -24.2773,23.13367 23.721973,23.721973 0 0 1 -23.15329,-24.25859 23.721973,23.721973 0 0 1 24.23986,-23.17289 23.721973,23.721973 0 0 1 23.19249,24.22112" />
  <path
     style="fill:#fefefe;fill-opacity:1;stroke:#000000;stroke-width:0.5;stroke-linecap:square;stroke-miterlimit:0;stroke-dasharray:none;stroke-opacity:1;paint-order:stroke markers fill"
     id="path3-5"
     d="m 213.15156,130.31852 a 23.721973,23.721973 0 0 1 -24.27731,23.13367 23.721973,23.721973 0 0 1 -23.15329,-24.2586 23.721973,23.721973 0 0 1 24.23988,-23.17289 23.721973,23.721973 0 0 1 23.19247,24.22112" />
</svg>
